<?xml version="1.0" encoding="iso-8859-1"?>
<!-- Uploaded to: SVG Repo, www.svgrepo.com, Generator: SVG Repo Mixer Tools -->
<svg height="800px" width="800px" version="1.1" id="Capa_1" xmlns="http://www.w3.org/2000/svg" xmlns:xlink="http://www.w3.org/1999/xlink" 
	 viewBox="0 0 250.609 250.609" xml:space="preserve">
<g>
	<g>
		<path style="fill:#010002;" d="M82.271,49.895c-24.763,15.019-40.3,42.072-40.3,71.4c0,46.064,37.472,83.536,83.536,83.536
			c40.181,0,73.727-27.835,81.698-66.196c-9.535,3.127-19.416,4.708-29.488,4.708C125.752,143.342,83.351,101.61,82.271,49.895z"/>
		<path style="fill:#010002;" d="M125.304,0C56.214,0,0,56.208,0,125.304c0,69.09,56.214,125.304,125.304,125.304
			s125.304-56.214,125.304-125.304C250.609,56.208,194.395,0,125.304,0z M125.507,216.764c-52.64,0-95.47-42.83-95.47-95.47
			c0-37.341,22.024-71.459,56.118-86.913l9.32-4.225l-0.913,10.191c-0.221,2.488-0.382,4.988-0.382,7.53
			c0,46.064,37.472,83.536,83.536,83.536c11.886,0,23.468-2.518,34.423-7.488l9.32-4.225l-0.907,10.191
			C216.12,179.418,175.265,216.764,125.507,216.764z"/>
	</g>
</g>
</svg>